<svg width="373" height="373" viewBox="0 0 373 373" fill="none" xmlns="http://www.w3.org/2000/svg">
<rect width="199.843" height="199.843" rx="59" transform="matrix(0.707107 -0.707107 -0.707107 -0.707107 229.311 328.621)" fill="url(#paint0_linear_251_72)"/>
<path d="M214.677 154.203H168.015C167.163 148.166 165.423 142.804 162.795 138.116C160.167 133.358 156.794 129.31 152.674 125.972C148.555 122.634 143.797 120.077 138.399 118.301C133.072 116.526 127.284 115.638 121.034 115.638C109.741 115.638 99.9045 118.443 91.5238 124.054C83.1431 129.594 76.6445 137.69 72.0281 148.344C67.4116 158.926 65.1033 171.781 65.1033 186.909C65.1033 202.463 67.4116 215.531 72.0281 226.114C76.7156 236.696 83.2496 244.686 91.6303 250.084C100.011 255.482 109.706 258.18 120.714 258.18C126.893 258.18 132.61 257.364 137.866 255.73C143.193 254.097 147.916 251.717 152.035 248.592C156.154 245.396 159.564 241.526 162.262 236.98C165.032 232.435 166.95 227.25 168.015 221.426L214.677 221.639C213.47 231.653 210.451 241.312 205.622 250.616C200.863 259.849 194.436 268.124 186.339 275.439C178.314 282.683 168.725 288.436 157.575 292.697C146.495 296.888 133.96 298.983 119.968 298.983C100.508 298.983 83.1076 294.58 67.7667 285.773C52.4968 276.966 40.4229 264.217 31.5451 247.527C22.7383 230.837 18.3349 210.631 18.3349 186.909C18.3349 163.116 22.8093 142.875 31.7582 126.185C40.707 109.494 52.8519 96.7812 68.1928 88.0455C83.5337 79.2386 100.792 74.8352 119.968 74.8352C132.61 74.8352 144.329 76.6108 155.125 80.1619C165.991 83.7131 175.615 88.8977 183.995 95.7159C192.376 102.463 199.194 110.737 204.45 120.538C209.777 130.339 213.186 141.561 214.677 154.203Z" fill="url(#paint1_linear_251_72)"/>
<path d="M202.678 175.547C202.33 174.337 201.841 173.268 201.211 172.34C200.582 171.396 199.811 170.6 198.9 169.954C198.005 169.291 196.977 168.786 195.817 168.438C194.674 168.089 193.406 167.915 192.014 167.915C189.412 167.915 187.125 168.562 185.153 169.854C183.198 171.147 181.673 173.028 180.579 175.497C179.485 177.95 178.939 180.949 178.939 184.496C178.939 188.042 179.477 191.058 180.554 193.544C181.632 196.03 183.156 197.927 185.128 199.237C187.1 200.529 189.429 201.175 192.113 201.175C194.549 201.175 196.629 200.745 198.353 199.883C200.093 199.004 201.418 197.77 202.33 196.179C203.258 194.588 203.722 192.707 203.722 190.536L205.909 190.859H192.784V182.756H214.088V189.169C214.088 193.643 213.143 197.488 211.254 200.703C209.365 203.902 206.763 206.371 203.449 208.111C200.134 209.834 196.339 210.696 192.064 210.696C187.291 210.696 183.098 209.644 179.485 207.539C175.873 205.418 173.056 202.41 171.034 198.516C169.029 194.605 168.026 189.964 168.026 184.595C168.026 180.469 168.623 176.79 169.816 173.558C171.025 170.31 172.716 167.559 174.887 165.305C177.058 163.052 179.585 161.336 182.468 160.16C185.352 158.983 188.476 158.395 191.84 158.395C194.723 158.395 197.408 158.817 199.894 159.663C202.38 160.491 204.584 161.668 206.506 163.192C208.445 164.717 210.028 166.532 211.254 168.636C212.48 170.724 213.267 173.028 213.615 175.547H202.678ZM268.955 184.545C268.955 190.097 267.903 194.82 265.798 198.714C263.71 202.609 260.86 205.584 257.247 207.638C253.651 209.677 249.608 210.696 245.117 210.696C240.593 210.696 236.532 209.669 232.936 207.614C229.34 205.559 226.498 202.584 224.41 198.69C222.322 194.795 221.278 190.08 221.278 184.545C221.278 178.994 222.322 174.271 224.41 170.376C226.498 166.482 229.34 163.516 232.936 161.477C236.532 159.422 240.593 158.395 245.117 158.395C249.608 158.395 253.651 159.422 257.247 161.477C260.86 163.516 263.71 166.482 265.798 170.376C267.903 174.271 268.955 178.994 268.955 184.545ZM258.043 184.545C258.043 180.949 257.504 177.917 256.427 175.447C255.366 172.978 253.867 171.106 251.928 169.83C249.989 168.554 247.718 167.915 245.117 167.915C242.515 167.915 240.244 168.554 238.306 169.83C236.367 171.106 234.859 172.978 233.781 175.447C232.721 177.917 232.191 180.949 232.191 184.545C232.191 188.142 232.721 191.174 233.781 193.643C234.859 196.113 236.367 197.985 238.306 199.261C240.244 200.537 242.515 201.175 245.117 201.175C247.718 201.175 249.989 200.537 251.928 199.261C253.867 197.985 255.366 196.113 256.427 193.643C257.504 191.174 258.043 188.142 258.043 184.545Z" fill="url(#paint2_linear_251_72)"/>
<path d="M168.589 219V213.909H169.666V218.113H171.848V219H168.589ZM172.561 219V213.909H175.992V214.797H173.637V216.01H175.815V216.897H173.637V218.113H176.001V219H172.561ZM177.725 219H176.571L178.329 213.909H179.716L181.471 219H180.317L179.042 215.072H179.002L177.725 219ZM177.653 216.999H180.377V217.839H177.653V216.999ZM182.084 219V213.909H184.092C184.477 213.909 184.805 213.978 185.076 214.115C185.35 214.251 185.558 214.444 185.7 214.695C185.845 214.943 185.917 215.236 185.917 215.572C185.917 215.91 185.844 216.201 185.698 216.445C185.552 216.687 185.341 216.872 185.064 217.001C184.789 217.131 184.456 217.195 184.065 217.195H182.72V216.33H183.891C184.096 216.33 184.267 216.302 184.403 216.246C184.539 216.189 184.64 216.105 184.706 215.992C184.774 215.879 184.808 215.739 184.808 215.572C184.808 215.403 184.774 215.261 184.706 215.145C184.64 215.029 184.538 214.941 184.4 214.881C184.264 214.82 184.093 214.789 183.886 214.789H183.16V219H182.084ZM184.833 216.683L186.098 219H184.91L183.672 216.683H184.833ZM190.936 213.909V219H190.006L187.791 215.796H187.754V219H186.677V213.909H187.622L189.819 217.111H189.864V213.909H190.936ZM192.901 213.909V219H191.825V213.909H192.901ZM198.045 213.909V219H197.115L194.9 215.796H194.863V219H193.787V213.909H194.731L196.929 217.111H196.973V213.909H198.045ZM202.31 215.555C202.275 215.434 202.226 215.327 202.163 215.234C202.1 215.14 202.023 215.06 201.932 214.995C201.843 214.929 201.74 214.879 201.624 214.844C201.509 214.809 201.383 214.792 201.243 214.792C200.983 214.792 200.755 214.856 200.557 214.985C200.362 215.115 200.209 215.303 200.1 215.55C199.991 215.795 199.936 216.095 199.936 216.45C199.936 216.804 199.99 217.106 200.098 217.354C200.205 217.603 200.358 217.793 200.555 217.924C200.752 218.053 200.985 218.118 201.253 218.118C201.497 218.118 201.705 218.074 201.877 217.988C202.051 217.9 202.184 217.777 202.275 217.618C202.368 217.459 202.414 217.271 202.414 217.054L202.633 217.086H201.321V216.276H203.451V216.917C203.451 217.364 203.356 217.749 203.167 218.07C202.979 218.39 202.718 218.637 202.387 218.811C202.056 218.983 201.676 219.07 201.248 219.07C200.771 219.07 200.352 218.964 199.991 218.754C199.629 218.542 199.348 218.241 199.145 217.852C198.945 217.46 198.845 216.996 198.845 216.46C198.845 216.047 198.904 215.679 199.024 215.356C199.145 215.031 199.314 214.756 199.531 214.531C199.748 214.305 200.001 214.134 200.289 214.016C200.577 213.898 200.89 213.839 201.226 213.839C201.514 213.839 201.783 213.882 202.031 213.966C202.28 214.049 202.5 214.167 202.693 214.319C202.887 214.472 203.045 214.653 203.167 214.864C203.29 215.072 203.369 215.303 203.404 215.555H202.31ZM206.618 216.034V216.875H204.297V216.034H206.618ZM210.302 215.373C210.282 215.173 210.197 215.017 210.046 214.906C209.895 214.795 209.691 214.739 209.432 214.739C209.257 214.739 209.108 214.764 208.987 214.814C208.866 214.862 208.774 214.929 208.709 215.015C208.646 215.101 208.614 215.199 208.614 215.309C208.611 215.4 208.63 215.479 208.672 215.547C208.715 215.615 208.774 215.674 208.848 215.724C208.923 215.772 209.009 215.814 209.107 215.85C209.204 215.885 209.309 215.915 209.42 215.94L209.877 216.049C210.099 216.099 210.303 216.165 210.489 216.248C210.674 216.331 210.835 216.433 210.971 216.554C211.107 216.675 211.212 216.817 211.287 216.982C211.363 217.146 211.402 217.334 211.404 217.546C211.402 217.857 211.322 218.127 211.165 218.356C211.009 218.583 210.784 218.76 210.489 218.886C210.195 219.01 209.842 219.072 209.427 219.072C209.016 219.072 208.658 219.009 208.353 218.883C208.05 218.757 207.813 218.571 207.643 218.324C207.473 218.075 207.385 217.768 207.377 217.402H208.418C208.43 217.572 208.479 217.715 208.565 217.829C208.653 217.942 208.769 218.027 208.915 218.085C209.063 218.142 209.229 218.17 209.415 218.17C209.597 218.17 209.755 218.143 209.89 218.09C210.026 218.037 210.131 217.963 210.205 217.869C210.28 217.775 210.317 217.666 210.317 217.543C210.317 217.429 210.283 217.333 210.215 217.255C210.149 217.177 210.051 217.111 209.922 217.056C209.794 217.001 209.638 216.952 209.452 216.907L208.898 216.768C208.469 216.663 208.13 216.5 207.881 216.278C207.633 216.056 207.509 215.757 207.511 215.381C207.509 215.072 207.591 214.803 207.757 214.573C207.924 214.342 208.154 214.163 208.445 214.033C208.737 213.904 209.069 213.839 209.44 213.839C209.818 213.839 210.147 213.904 210.429 214.033C210.712 214.163 210.933 214.342 211.09 214.573C211.248 214.803 211.329 215.07 211.334 215.373H210.302ZM216.619 215.691H215.531C215.511 215.551 215.47 215.425 215.409 215.316C215.347 215.205 215.269 215.111 215.173 215.033C215.077 214.955 214.965 214.895 214.84 214.854C214.715 214.812 214.58 214.792 214.434 214.792C214.171 214.792 213.941 214.857 213.746 214.988C213.55 215.117 213.399 215.306 213.291 215.555C213.183 215.802 213.129 216.102 213.129 216.455C213.129 216.817 213.183 217.122 213.291 217.369C213.4 217.616 213.553 217.803 213.748 217.929C213.944 218.055 214.17 218.118 214.427 218.118C214.571 218.118 214.704 218.098 214.827 218.06C214.951 218.022 215.062 217.967 215.158 217.894C215.254 217.819 215.333 217.729 215.396 217.623C215.461 217.517 215.506 217.396 215.531 217.26L216.619 217.265C216.591 217.499 216.521 217.724 216.408 217.941C216.297 218.156 216.147 218.35 215.958 218.52C215.771 218.689 215.547 218.824 215.287 218.923C215.028 219.021 214.736 219.07 214.409 219.07C213.955 219.07 213.549 218.967 213.191 218.761C212.835 218.556 212.553 218.258 212.346 217.869C212.141 217.48 212.038 217.008 212.038 216.455C212.038 215.899 212.142 215.427 212.351 215.038C212.56 214.648 212.843 214.352 213.201 214.148C213.559 213.942 213.962 213.839 214.409 213.839C214.704 213.839 214.978 213.881 215.23 213.964C215.483 214.047 215.708 214.168 215.903 214.327C216.099 214.484 216.258 214.677 216.381 214.906C216.505 215.135 216.585 215.396 216.619 215.691ZM222.069 216.455C222.069 217.01 221.964 217.482 221.754 217.871C221.545 218.261 221.26 218.558 220.899 218.764C220.539 218.968 220.135 219.07 219.686 219.07C219.233 219.07 218.827 218.967 218.468 218.761C218.108 218.556 217.824 218.258 217.615 217.869C217.406 217.48 217.302 217.008 217.302 216.455C217.302 215.899 217.406 215.427 217.615 215.038C217.824 214.648 218.108 214.352 218.468 214.148C218.827 213.942 219.233 213.839 219.686 213.839C220.135 213.839 220.539 213.942 220.899 214.148C221.26 214.352 221.545 214.648 221.754 215.038C221.964 215.427 222.069 215.899 222.069 216.455ZM220.978 216.455C220.978 216.095 220.924 215.792 220.817 215.545C220.711 215.298 220.561 215.111 220.367 214.983C220.173 214.855 219.946 214.792 219.686 214.792C219.425 214.792 219.198 214.855 219.004 214.983C218.811 215.111 218.66 215.298 218.552 215.545C218.446 215.792 218.393 216.095 218.393 216.455C218.393 216.814 218.446 217.117 218.552 217.364C218.66 217.611 218.811 217.799 219.004 217.926C219.198 218.054 219.425 218.118 219.686 218.118C219.946 218.118 220.173 218.054 220.367 217.926C220.561 217.799 220.711 217.611 220.817 217.364C220.924 217.117 220.978 216.814 220.978 216.455ZM222.867 219V213.909H224.875C225.26 213.909 225.588 213.978 225.86 214.115C226.133 214.251 226.341 214.444 226.484 214.695C226.628 214.943 226.7 215.236 226.7 215.572C226.7 215.91 226.627 216.201 226.481 216.445C226.335 216.687 226.124 216.872 225.847 217.001C225.572 217.131 225.239 217.195 224.848 217.195H223.503V216.33H224.674C224.879 216.33 225.05 216.302 225.186 216.246C225.322 216.189 225.423 216.105 225.489 215.992C225.557 215.879 225.591 215.739 225.591 215.572C225.591 215.403 225.557 215.261 225.489 215.145C225.423 215.029 225.321 214.941 225.184 214.881C225.048 214.82 224.876 214.789 224.669 214.789H223.943V219H222.867ZM225.616 216.683L226.881 219H225.693L224.455 216.683H225.616ZM227.461 219V213.909H230.891V214.797H228.537V216.01H230.714V216.897H228.537V218.113H230.901V219H227.461ZM234.508 215.373C234.489 215.173 234.403 215.017 234.252 214.906C234.102 214.795 233.897 214.739 233.638 214.739C233.463 214.739 233.314 214.764 233.193 214.814C233.072 214.862 232.98 214.929 232.915 215.015C232.852 215.101 232.821 215.199 232.821 215.309C232.817 215.4 232.836 215.479 232.878 215.547C232.921 215.615 232.98 215.674 233.054 215.724C233.129 215.772 233.215 215.814 233.313 215.85C233.41 215.885 233.515 215.915 233.626 215.94L234.083 216.049C234.305 216.099 234.509 216.165 234.695 216.248C234.88 216.331 235.041 216.433 235.177 216.554C235.313 216.675 235.418 216.817 235.493 216.982C235.569 217.146 235.608 217.334 235.61 217.546C235.608 217.857 235.528 218.127 235.371 218.356C235.215 218.583 234.99 218.76 234.695 218.886C234.402 219.01 234.048 219.072 233.633 219.072C233.222 219.072 232.864 219.009 232.56 218.883C232.256 218.757 232.019 218.571 231.849 218.324C231.68 218.075 231.591 217.768 231.583 217.402H232.624C232.636 217.572 232.685 217.715 232.771 217.829C232.859 217.942 232.975 218.027 233.121 218.085C233.269 218.142 233.435 218.17 233.621 218.17C233.803 218.17 233.962 218.143 234.096 218.09C234.232 218.037 234.337 217.963 234.411 217.869C234.486 217.775 234.523 217.666 234.523 217.543C234.523 217.429 234.489 217.333 234.421 217.255C234.355 217.177 234.257 217.111 234.128 217.056C234 217.001 233.844 216.952 233.658 216.907L233.104 216.768C232.675 216.663 232.336 216.5 232.087 216.278C231.839 216.056 231.715 215.757 231.717 215.381C231.715 215.072 231.797 214.803 231.963 214.573C232.13 214.342 232.36 214.163 232.652 214.033C232.943 213.904 233.275 213.839 233.646 213.839C234.024 213.839 234.353 213.904 234.635 214.033C234.919 214.163 235.139 214.342 235.296 214.573C235.454 214.803 235.535 215.07 235.54 215.373H234.508ZM238.693 216.034V216.875H236.371V216.034H238.693ZM242.377 215.373C242.357 215.173 242.271 215.017 242.121 214.906C241.97 214.795 241.765 214.739 241.507 214.739C241.331 214.739 241.183 214.764 241.062 214.814C240.941 214.862 240.848 214.929 240.783 215.015C240.72 215.101 240.689 215.199 240.689 215.309C240.685 215.4 240.704 215.479 240.746 215.547C240.789 215.615 240.848 215.674 240.922 215.724C240.997 215.772 241.083 215.814 241.181 215.85C241.279 215.885 241.383 215.915 241.494 215.94L241.951 216.049C242.174 216.099 242.377 216.165 242.563 216.248C242.749 216.331 242.909 216.433 243.045 216.554C243.181 216.675 243.286 216.817 243.361 216.982C243.437 217.146 243.476 217.334 243.478 217.546C243.476 217.857 243.397 218.127 243.239 218.356C243.083 218.583 242.858 218.76 242.563 218.886C242.27 219.01 241.916 219.072 241.502 219.072C241.091 219.072 240.733 219.009 240.428 218.883C240.124 218.757 239.887 218.571 239.717 218.324C239.548 218.075 239.459 217.768 239.451 217.402H240.492C240.504 217.572 240.553 217.715 240.639 217.829C240.727 217.942 240.844 218.027 240.989 218.085C241.137 218.142 241.304 218.17 241.489 218.17C241.671 218.17 241.83 218.143 241.964 218.09C242.1 218.037 242.205 217.963 242.28 217.869C242.354 217.775 242.391 217.666 242.391 217.543C242.391 217.429 242.357 217.333 242.29 217.255C242.223 217.177 242.125 217.111 241.996 217.056C241.869 217.001 241.712 216.952 241.526 216.907L240.972 216.768C240.543 216.663 240.204 216.5 239.955 216.278C239.707 216.056 239.583 215.757 239.585 215.381C239.583 215.072 239.665 214.803 239.831 214.573C239.998 214.342 240.228 214.163 240.52 214.033C240.811 213.904 241.143 213.839 241.514 213.839C241.892 213.839 242.222 213.904 242.503 214.033C242.787 214.163 243.007 214.342 243.165 214.573C243.322 214.803 243.403 215.07 243.408 215.373H242.377ZM247.346 213.909H248.423V217.215C248.423 217.586 248.334 217.911 248.157 218.19C247.981 218.468 247.735 218.685 247.418 218.841C247.102 218.995 246.733 219.072 246.312 219.072C245.89 219.072 245.52 218.995 245.204 218.841C244.887 218.685 244.641 218.468 244.465 218.19C244.29 217.911 244.202 217.586 244.202 217.215V213.909H245.278V217.123C245.278 217.317 245.32 217.489 245.405 217.64C245.491 217.791 245.612 217.91 245.768 217.996C245.924 218.082 246.105 218.125 246.312 218.125C246.521 218.125 246.702 218.082 246.857 217.996C247.012 217.91 247.133 217.791 247.217 217.64C247.303 217.489 247.346 217.317 247.346 217.123V213.909ZM253.8 215.691H252.711C252.691 215.551 252.651 215.425 252.589 215.316C252.528 215.205 252.449 215.111 252.353 215.033C252.257 214.955 252.146 214.895 252.02 214.854C251.896 214.812 251.761 214.792 251.615 214.792C251.352 214.792 251.122 214.857 250.926 214.988C250.731 215.117 250.579 215.306 250.472 215.555C250.364 215.802 250.31 216.102 250.31 216.455C250.31 216.817 250.364 217.122 250.472 217.369C250.581 217.616 250.733 217.803 250.929 217.929C251.124 218.055 251.351 218.118 251.608 218.118C251.752 218.118 251.885 218.098 252.008 218.06C252.132 218.022 252.242 217.967 252.338 217.894C252.434 217.819 252.514 217.729 252.577 217.623C252.642 217.517 252.686 217.396 252.711 217.26L253.8 217.265C253.772 217.499 253.701 217.724 253.589 217.941C253.478 218.156 253.328 218.35 253.139 218.52C252.952 218.689 252.728 218.824 252.468 218.923C252.209 219.021 251.917 219.07 251.59 219.07C251.136 219.07 250.73 218.967 250.372 218.761C250.016 218.556 249.734 218.258 249.527 217.869C249.321 217.48 249.219 217.008 249.219 216.455C249.219 215.899 249.323 215.427 249.532 215.038C249.741 214.648 250.024 214.352 250.382 214.148C250.74 213.942 251.143 213.839 251.59 213.839C251.885 213.839 252.159 213.881 252.41 213.964C252.664 214.047 252.889 214.168 253.084 214.327C253.28 214.484 253.439 214.677 253.561 214.906C253.686 215.135 253.765 215.396 253.8 215.691ZM259.064 215.691H257.975C257.955 215.551 257.914 215.425 257.853 215.316C257.792 215.205 257.713 215.111 257.617 215.033C257.521 214.955 257.41 214.895 257.284 214.854C257.16 214.812 257.025 214.792 256.879 214.792C256.615 214.792 256.386 214.857 256.19 214.988C255.995 215.117 255.843 215.306 255.735 215.555C255.628 215.802 255.574 216.102 255.574 216.455C255.574 216.817 255.628 217.122 255.735 217.369C255.845 217.616 255.997 217.803 256.193 217.929C256.388 218.055 256.614 218.118 256.871 218.118C257.015 218.118 257.149 218.098 257.271 218.06C257.396 218.022 257.506 217.967 257.602 217.894C257.698 217.819 257.778 217.729 257.841 217.623C257.905 217.517 257.95 217.396 257.975 217.26L259.064 217.265C259.036 217.499 258.965 217.724 258.852 217.941C258.741 218.156 258.591 218.35 258.402 218.52C258.215 218.689 257.991 218.824 257.731 218.923C257.473 219.021 257.18 219.07 256.854 219.07C256.4 219.07 255.994 218.967 255.636 218.761C255.279 218.556 254.998 218.258 254.791 217.869C254.585 217.48 254.482 217.008 254.482 216.455C254.482 215.899 254.587 215.427 254.796 215.038C255.004 214.648 255.288 214.352 255.646 214.148C256.004 213.942 256.406 213.839 256.854 213.839C257.149 213.839 257.422 213.881 257.674 213.964C257.928 214.047 258.152 214.168 258.348 214.327C258.543 214.484 258.702 214.677 258.825 214.906C258.949 215.135 259.029 215.396 259.064 215.691ZM259.836 219V213.909H263.266V214.797H260.912V216.01H263.089V216.897H260.912V218.113H263.276V219H259.836ZM266.883 215.373C266.864 215.173 266.778 215.017 266.627 214.906C266.477 214.795 266.272 214.739 266.013 214.739C265.838 214.739 265.689 214.764 265.568 214.814C265.447 214.862 265.355 214.929 265.29 215.015C265.227 215.101 265.196 215.199 265.196 215.309C265.192 215.4 265.211 215.479 265.253 215.547C265.296 215.615 265.355 215.674 265.429 215.724C265.504 215.772 265.59 215.814 265.688 215.85C265.785 215.885 265.89 215.915 266.001 215.94L266.458 216.049C266.68 216.099 266.884 216.165 267.07 216.248C267.255 216.331 267.416 216.433 267.552 216.554C267.688 216.675 267.793 216.817 267.868 216.982C267.944 217.146 267.983 217.334 267.985 217.546C267.983 217.857 267.903 218.127 267.746 218.356C267.59 218.583 267.365 218.76 267.07 218.886C266.777 219.01 266.423 219.072 266.008 219.072C265.597 219.072 265.239 219.009 264.935 218.883C264.631 218.757 264.394 218.571 264.224 218.324C264.055 218.075 263.966 217.768 263.958 217.402H264.999C265.011 217.572 265.06 217.715 265.146 217.829C265.234 217.942 265.35 218.027 265.496 218.085C265.644 218.142 265.81 218.17 265.996 218.17C266.178 218.17 266.337 218.143 266.471 218.09C266.607 218.037 266.712 217.963 266.786 217.869C266.861 217.775 266.898 217.666 266.898 217.543C266.898 217.429 266.864 217.333 266.796 217.255C266.73 217.177 266.632 217.111 266.503 217.056C266.375 217.001 266.219 216.952 266.033 216.907L265.479 216.768C265.05 216.663 264.711 216.5 264.462 216.278C264.214 216.056 264.09 215.757 264.092 215.381C264.09 215.072 264.172 214.803 264.338 214.573C264.505 214.342 264.735 214.163 265.027 214.033C265.318 213.904 265.65 213.839 266.021 213.839C266.399 213.839 266.728 213.904 267.01 214.033C267.294 214.163 267.514 214.342 267.671 214.573C267.829 214.803 267.91 215.07 267.915 215.373H266.883ZM271.47 215.373C271.45 215.173 271.365 215.017 271.214 214.906C271.063 214.795 270.859 214.739 270.6 214.739C270.425 214.739 270.276 214.764 270.155 214.814C270.034 214.862 269.942 214.929 269.877 215.015C269.814 215.101 269.782 215.199 269.782 215.309C269.779 215.4 269.798 215.479 269.84 215.547C269.883 215.615 269.942 215.674 270.016 215.724C270.091 215.772 270.177 215.814 270.275 215.85C270.372 215.885 270.477 215.915 270.588 215.94L271.045 216.049C271.267 216.099 271.471 216.165 271.657 216.248C271.842 216.331 272.003 216.433 272.139 216.554C272.275 216.675 272.38 216.817 272.455 216.982C272.531 217.146 272.57 217.334 272.572 217.546C272.57 217.857 272.49 218.127 272.333 218.356C272.177 218.583 271.952 218.76 271.657 218.886C271.363 219.01 271.01 219.072 270.595 219.072C270.184 219.072 269.826 219.009 269.521 218.883C269.218 218.757 268.981 218.571 268.811 218.324C268.641 218.075 268.553 217.768 268.545 217.402H269.586C269.598 217.572 269.647 217.715 269.733 217.829C269.821 217.942 269.937 218.027 270.083 218.085C270.231 218.142 270.397 218.17 270.583 218.17C270.765 218.17 270.923 218.143 271.058 218.09C271.194 218.037 271.299 217.963 271.373 217.869C271.448 217.775 271.485 217.666 271.485 217.543C271.485 217.429 271.451 217.333 271.383 217.255C271.317 217.177 271.219 217.111 271.09 217.056C270.962 217.001 270.806 216.952 270.62 216.907L270.066 216.768C269.637 216.663 269.298 216.5 269.049 216.278C268.801 216.056 268.677 215.757 268.679 215.381C268.677 215.072 268.759 214.803 268.925 214.573C269.092 214.342 269.322 214.163 269.613 214.033C269.905 213.904 270.237 213.839 270.608 213.839C270.986 213.839 271.315 213.904 271.597 214.033C271.88 214.163 272.101 214.342 272.258 214.573C272.416 214.803 272.497 215.07 272.502 215.373H271.47Z" fill="url(#paint3_linear_251_72)"/>
<path d="M216.745 154V148.909H217.821V153.113H220.004V154H216.745ZM221.724 154H220.57L222.328 148.909H223.715L225.47 154H224.316L223.041 150.072H223.001L221.724 154ZM221.652 151.999H224.376V152.839H221.652V151.999ZM228.728 150.373C228.708 150.173 228.623 150.017 228.472 149.906C228.321 149.795 228.117 149.739 227.858 149.739C227.682 149.739 227.534 149.764 227.413 149.814C227.292 149.862 227.199 149.929 227.135 150.015C227.072 150.101 227.04 150.199 227.04 150.309C227.037 150.4 227.056 150.479 227.097 150.547C227.141 150.615 227.199 150.674 227.274 150.724C227.348 150.772 227.435 150.814 227.532 150.85C227.63 150.885 227.735 150.915 227.846 150.94L228.303 151.049C228.525 151.099 228.729 151.165 228.915 151.248C229.1 151.331 229.261 151.433 229.397 151.554C229.533 151.675 229.638 151.817 229.712 151.982C229.789 152.146 229.828 152.334 229.829 152.546C229.828 152.857 229.748 153.127 229.591 153.356C229.435 153.583 229.21 153.76 228.915 153.886C228.621 154.01 228.267 154.072 227.853 154.072C227.442 154.072 227.084 154.009 226.779 153.883C226.476 153.757 226.239 153.571 226.068 153.324C225.899 153.075 225.811 152.768 225.802 152.402H226.844C226.855 152.572 226.904 152.715 226.991 152.829C227.078 152.942 227.195 153.027 227.341 153.085C227.489 153.142 227.655 153.17 227.841 153.17C228.023 153.17 228.181 153.143 228.315 153.09C228.451 153.037 228.557 152.963 228.631 152.869C228.706 152.775 228.743 152.666 228.743 152.543C228.743 152.429 228.709 152.333 228.641 152.255C228.575 152.177 228.477 152.111 228.348 152.056C228.22 152.001 228.064 151.952 227.878 151.907L227.324 151.768C226.894 151.663 226.556 151.5 226.307 151.278C226.058 151.056 225.935 150.757 225.937 150.381C225.935 150.072 226.017 149.803 226.183 149.573C226.35 149.342 226.58 149.163 226.871 149.033C227.163 148.904 227.494 148.839 227.866 148.839C228.243 148.839 228.573 148.904 228.855 149.033C229.138 149.163 229.359 149.342 229.516 149.573C229.674 149.803 229.755 150.07 229.76 150.373H228.728ZM233.315 150.373C233.295 150.173 233.21 150.017 233.059 149.906C232.908 149.795 232.704 149.739 232.445 149.739C232.269 149.739 232.121 149.764 232 149.814C231.879 149.862 231.786 149.929 231.722 150.015C231.659 150.101 231.627 150.199 231.627 150.309C231.624 150.4 231.643 150.479 231.684 150.547C231.727 150.615 231.786 150.674 231.861 150.724C231.935 150.772 232.022 150.814 232.119 150.85C232.217 150.885 232.322 150.915 232.433 150.94L232.89 151.049C233.112 151.099 233.316 151.165 233.501 151.248C233.687 151.331 233.848 151.433 233.984 151.554C234.12 151.675 234.225 151.817 234.299 151.982C234.376 152.146 234.415 152.334 234.416 152.546C234.415 152.857 234.335 153.127 234.178 153.356C234.022 153.583 233.796 153.76 233.501 153.886C233.208 154.01 232.854 154.072 232.44 154.072C232.029 154.072 231.671 154.009 231.366 153.883C231.063 153.757 230.826 153.571 230.655 153.324C230.486 153.075 230.398 152.768 230.389 152.402H231.431C231.442 152.572 231.491 152.715 231.577 152.829C231.665 152.942 231.782 153.027 231.928 153.085C232.075 153.142 232.242 153.17 232.428 153.17C232.61 153.17 232.768 153.143 232.902 153.09C233.038 153.037 233.144 152.963 233.218 152.869C233.293 152.775 233.33 152.666 233.33 152.543C233.33 152.429 233.296 152.333 233.228 152.255C233.162 152.177 233.064 152.111 232.935 152.056C232.807 152.001 232.65 151.952 232.465 151.907L231.911 151.768C231.481 151.663 231.142 151.5 230.894 151.278C230.645 151.056 230.522 150.757 230.523 150.381C230.522 150.072 230.604 149.803 230.77 149.573C230.937 149.342 231.166 149.163 231.458 149.033C231.75 148.904 232.081 148.839 232.452 148.839C232.83 148.839 233.16 148.904 233.442 149.033C233.725 149.163 233.946 149.342 234.103 149.573C234.26 149.803 234.342 150.07 234.347 150.373H233.315Z" fill="url(#paint4_linear_251_72)"/>
<defs>
<linearGradient id="paint0_linear_251_72" x1="99.9216" y1="199.843" x2="99.9216" y2="0" gradientUnits="userSpaceOnUse">
<stop stop-color="#002D74"/>
<stop offset="1" stop-color="#5585DB"/>
</linearGradient>
<linearGradient id="paint1_linear_251_72" x1="116" y1="5" x2="116" y2="368" gradientUnits="userSpaceOnUse">
<stop stop-color="#659FFF"/>
<stop offset="1" stop-color="#EFF4FF"/>
</linearGradient>
<linearGradient id="paint2_linear_251_72" x1="218.5" y1="142" x2="218.5" y2="227" gradientUnits="userSpaceOnUse">
<stop stop-color="#659FFF"/>
<stop offset="1" stop-color="#EFF4FF"/>
</linearGradient>
<linearGradient id="paint3_linear_251_72" x1="220.5" y1="212" x2="220.5" y2="220" gradientUnits="userSpaceOnUse">
<stop stop-color="#659FFF"/>
<stop offset="1" stop-color="#EFF4FF"/>
</linearGradient>
<linearGradient id="paint4_linear_251_72" x1="225.5" y1="147" x2="225.5" y2="155" gradientUnits="userSpaceOnUse">
<stop stop-color="#659FFF"/>
<stop offset="1" stop-color="#EFF4FF"/>
</linearGradient>
</defs>
</svg>
